<svg width="414" height="449" viewBox="0 0 414 449" fill="none" xmlns="http://www.w3.org/2000/svg">
<g clip-path="url(#clip0_27_85)">
<path d="M3.13513 -2.69623L3.28862 338.418C3.28862 338.418 35.8324 399.773 119.429 392.614C203.025 385.454 220.346 347.091 321.315 417.735C321.315 417.735 356.937 447.304 421.956 446.187L421.753 -2.88459L3.13513 -2.69623Z" fill="#FAF8F5"/>
<path d="M408.993 448.008C355.739 448.032 324.173 426.316 323.837 426.066C260.718 382.217 222.041 390.602 168.523 402.224C154.329 405.306 139.637 408.495 122.883 411.173C41.0022 424.274 0.688032 386.291 0.283807 385.898L1.2801 385.099C1.67085 385.48 41.5538 422.974 122.627 410.005C139.353 407.327 154.005 404.15 168.186 401.068C222.081 389.374 261.014 380.929 324.658 425.136C325.048 425.41 363.351 451.736 426.851 445.997L426.986 447.178C420.751 447.753 414.744 448.006 408.993 448.008Z" fill="#DCCBC4"/>
</g>
<defs>
<clipPath id="clip0_27_85">
<rect width="426.688" height="449.994" fill="white" transform="translate(0.109375 -1.802) rotate(-0.0257808)"/>
</clipPath>
</defs>
</svg>
