<svg width="414" height="532" viewBox="0 0 414 532" fill="none" xmlns="http://www.w3.org/2000/svg">
<g clip-path="url(#clip0_26_82)">
<path d="M422.62 541.004L419.821 131.728C419.821 131.728 386.225 58.3225 301.204 67.4488C216.182 76.5751 198.851 122.716 95.5456 38.6039C95.5456 38.6039 59.0637 3.35486 -7.09781 5.11198L-3.41325 543.917L422.62 541.004Z" fill="#FAF8F5"/>
<path d="M6.08034 2.84413C60.2771 2.47351 92.5705 28.3263 92.9152 28.6243C157.492 80.8305 196.789 70.5213 251.165 56.2331C265.586 52.4444 280.514 48.5235 297.544 45.2033C380.774 28.9585 422.097 74.2726 422.511 74.7417L421.503 75.7069C421.103 75.2519 380.223 30.5213 297.814 46.6031C280.812 49.9232 265.925 53.8294 251.517 57.618C196.758 71.9947 157.201 82.3771 92.0867 29.7455C91.687 29.4193 52.5023 -1.92139 -12.0785 5.37117L-12.2252 3.95619C-5.88363 3.2263 0.227533 2.88415 6.08034 2.84413Z" fill="#DCCBC4"/>
</g>
<defs>
<clipPath id="clip0_26_82">
<rect width="434.256" height="539.924" fill="white" transform="translate(425.692 539.911) rotate(179.608)"/>
</clipPath>
</defs>
</svg>
