<svg width="24" height="25" viewBox="0 0 24 25" fill="none" xmlns="http://www.w3.org/2000/svg">
<path d="M23.6496 12.7673C23.6496 11.778 23.5693 11.056 23.3955 10.3074H12.0984V14.7727H18.7296C18.5959 15.8824 17.874 17.5536 16.2696 18.6765L16.2471 18.826L19.8191 21.5932L20.0665 21.6179C22.3393 19.5189 23.6496 16.4305 23.6496 12.7673Z" fill="#4285F4"/>
<path d="M12.0984 24.5324C15.3471 24.5324 18.0744 23.4628 20.0665 21.6178L16.2696 18.6765C15.2536 19.3851 13.8899 19.8798 12.0984 19.8798C8.9165 19.8798 6.2159 17.7808 5.25321 14.8797L5.1121 14.8917L1.39794 17.7661L1.34937 17.9011C3.32802 21.8317 7.39232 24.5324 12.0984 24.5324Z" fill="#34A853"/>
<path d="M5.25319 14.8797C4.99918 14.131 4.85217 13.3288 4.85217 12.4999C4.85217 11.671 4.99918 10.8688 5.23983 10.1202L5.2331 9.9607L1.47239 7.0401L1.34935 7.09863C0.533852 8.72971 0.065918 10.5614 0.065918 12.4999C0.065918 14.4385 0.533852 16.27 1.34935 17.9011L5.25319 14.8797Z" fill="#FBBC05"/>
<path d="M12.0988 5.12005C14.3582 5.12005 15.8822 6.09601 16.7513 6.9116L20.1471 3.59597C18.0615 1.65741 15.3475 0.467529 12.0988 0.467529C7.39269 0.467529 3.32838 3.16813 1.34973 7.0987L5.24021 10.1202C6.21626 7.21907 8.91686 5.12005 12.0988 5.12005Z" fill="#EB4335"/>
</svg>
