<svg width="414" height="723" viewBox="0 0 414 723" fill="none" xmlns="http://www.w3.org/2000/svg">
<path fill-rule="evenodd" clip-rule="evenodd" d="M414.956 143.01C440.512 130.472 458 105.016 458 75.6517C458 33.8704 422.594 0 378.919 0C352.376 0 328.887 12.5094 314.544 31.7016C309.711 30.3888 304.61 29.6861 299.337 29.6861C280.036 29.6861 263.035 39.101 253.076 53.3919C245.766 45.8776 235.336 41.1775 223.759 41.1775C208.109 41.1775 194.556 49.7669 187.97 62.2866C177.018 56.1722 164.279 52.6689 150.684 52.6689C125.884 52.6689 103.93 64.3278 90.4852 82.2289C86.0672 81.0627 81.4136 80.4397 76.6079 80.4397C68.4393 80.4397 60.7101 82.2397 53.8301 85.4477C46.2477 72.7324 31.9429 64.1603 15.5453 64.1603C-8.78026 64.1603 -28.5 83.0248 -28.5 106.295C-28.5 124.522 -16.4027 140.045 0.529785 145.919V723H414.956V143.01ZM250.245 108.211H250.51C250.481 108.16 250.452 108.109 250.424 108.058C250.364 108.109 250.305 108.16 250.245 108.211Z" fill="#FFF4F1"/>
</svg>
